<svg width="70" height="71" viewBox="0 0 70 71" fill="none" xmlns="http://www.w3.org/2000/svg">
<path d="M42.665 43.165L14 56.5L27.335 27.835L56 14.5M35 0.5C30.4037 0.5 25.8525 1.4053 21.6061 3.16422C17.3597 4.92313 13.5013 7.50121 10.2513 10.7513C3.68749 17.315 0 26.2174 0 35.5C0 44.7826 3.68749 53.685 10.2513 60.2487C13.5013 63.4988 17.3597 66.0769 21.6061 67.8358C25.8525 69.5947 30.4037 70.5 35 70.5C44.2826 70.5 53.185 66.8125 59.7487 60.2487C66.3125 53.685 70 44.7826 70 35.5C70 30.9037 69.0947 26.3525 67.3358 22.1061C65.5769 17.8597 62.9988 14.0013 59.7487 10.7513C56.4987 7.50121 52.6403 4.92313 48.3939 3.16422C44.1475 1.4053 39.5963 0.5 35 0.5ZM35 31.65C33.9789 31.65 32.9997 32.0556 32.2776 32.7776C31.5556 33.4997 31.15 34.4789 31.15 35.5C31.15 36.5211 31.5556 37.5003 32.2776 38.2224C32.9997 38.9444 33.9789 39.35 35 39.35C36.0211 39.35 37.0003 38.9444 37.7224 38.2224C38.4444 37.5003 38.85 36.5211 38.85 35.5C38.85 34.4789 38.4444 33.4997 37.7224 32.7776C37.0003 32.0556 36.0211 31.65 35 31.65Z" fill="#E54C4C"/>
</svg>
