<svg width="40" height="40" viewBox="0 0 40 40" fill="none" xmlns="http://www.w3.org/2000/svg">
<path fill-rule="evenodd" clip-rule="evenodd" d="M20 4C15.7565 4 11.6869 5.68571 8.68629 8.68629C5.68571 11.6869 4 15.7565 4 20V24H8C9.06087 24 10.0783 24.4214 10.8284 25.1716C11.5786 25.9217 12 26.9391 12 28V34C12 35.5913 11.3679 37.1174 10.2426 38.2426C9.11742 39.3679 7.5913 40 6 40C4.4087 40 2.88258 39.3679 1.75736 38.2426C0.632141 37.1174 0 35.5913 0 34V20C0 8.954 8.954 0 20 0C31.046 0 40 8.954 40 20V34C40 35.5913 39.3679 37.1174 38.2426 38.2426C37.1174 39.3679 35.5913 40 34 40C32.4087 40 30.8826 39.3679 29.7574 38.2426C28.6321 37.1174 28 35.5913 28 34V28C28 26.9391 28.4214 25.9217 29.1716 25.1716C29.9217 24.4214 30.9391 24 32 24H36V20C36 15.7565 34.3143 11.6869 31.3137 8.68629C28.3131 5.68571 24.2435 4 20 4Z" fill="#F4F2EE"/>
</svg>
